<svg xmlns="http://www.w3.org/2000/svg" xmlns:xlink="http://www.w3.org/1999/xlink" viewBox="0 0 42.01 42.01"><defs><style>.cls-1{fill:none;}.cls-2{fill:#e5e5e5;}.cls-3{clip-path:url(#clip-path);}.cls-4{fill:#58a4fa;}.cls-5{fill:#fff;}.cls-6{clip-path:url(#clip-path-2);}.cls-7{fill:#fa5873;}</style><clipPath id="clip-path"><circle class="cls-1" cx="13.43" cy="13.42" r="13.01"/></clipPath><clipPath id="clip-path-2"><circle class="cls-1" cx="28.59" cy="28.58" r="13.11"/></clipPath></defs><g id="Layer_2" data-name="Layer 2"><g id="Layer_1-2" data-name="Layer 1"><g id="Layer_2-2" data-name="Layer 2"><g id="Layer_1-2-2" data-name="Layer 1-2"><circle class="cls-2" cx="13.43" cy="13.42" r="13.01"/><g class="cls-3"><path class="cls-4" d="M2,26.42a10,10,0,0,1,.3-1.52c.19-.87.37-1.74.6-2.6a3.44,3.44,0,0,1,1-1.86,1.37,1.37,0,0,1,.42-.29,32.93,32.93,0,0,1,3.08-1.23,9.4,9.4,0,0,0,2.16-.87,1.58,1.58,0,0,1,.24-.15,1.74,1.74,0,0,0,1-1.63v-.6a.55.55,0,0,0-.07-.25A8.68,8.68,0,0,1,10,13.64c0-.15-.09-.26-.3-.19s-.22,0-.27-.16a5.86,5.86,0,0,1-.58-1.82A1,1,0,0,1,9,10.88a.37.37,0,0,1,.27-.23c.27,0,.22-.16.15-.33a4,4,0,0,1-.22-.54,4.53,4.53,0,0,1,.11-2.93A1.46,1.46,0,0,1,10,6a10.38,10.38,0,0,1,.88-.59A1.41,1.41,0,0,1,12,5.31a.34.34,0,0,0,.38-.07A2.52,2.52,0,0,1,15,4.92a10.64,10.64,0,0,1,1.85,1A2.53,2.53,0,0,1,17.93,7.6a5.24,5.24,0,0,1-.19,2.72l-.09.28c0,.17-.14.34.17.4s.19.23.19.4a4.56,4.56,0,0,1-.43,1.92c-.08.18-.16.34-.4.32s-.14.1-.16.19a4.46,4.46,0,0,1-.78,1.61.56.56,0,0,0-.11.37,8.44,8.44,0,0,0,.09,1,1.41,1.41,0,0,0,.71,1A10.16,10.16,0,0,0,19.52,19a29.89,29.89,0,0,1,2.89,1.14,2.15,2.15,0,0,1,.7.45,2.61,2.61,0,0,1,.73,1.17,47.32,47.32,0,0,1,1.1,4.71H2Z"/></g><path class="cls-5" d="M13.43,1A12.42,12.42,0,1,1,1,13.42H1A12.43,12.43,0,0,1,13.43,1m0-1A13.42,13.42,0,1,0,26.84,13.43h0A13.42,13.42,0,0,0,13.43,0Z"/><circle class="cls-2" cx="28.59" cy="28.58" r="13.11"/><g class="cls-6"><path class="cls-7" d="M17.83,41.69c.14-1.25.26-2.51.5-3.74a3.43,3.43,0,0,1,.77-1.74,1.68,1.68,0,0,1,.59-.47,19.77,19.77,0,0,1,2.48-1c.44-.14.91-.19,1.37-.29a16,16,0,0,0,2.13-.58.84.84,0,0,0,.6-.7,1.73,1.73,0,0,1,.07-.59c.07-.2,0-.28-.29-.26-.57,0-1.14.15-1.71.15h-.16a.93.93,0,0,1-.94-.92v0a4.06,4.06,0,0,1,.22-1.29,12.39,12.39,0,0,0,.45-2.7,26,26,0,0,0,0-3.3,3.12,3.12,0,0,1,1.1-2.8A2.16,2.16,0,0,1,27,21a.9.9,0,0,0,.82-.2,3.15,3.15,0,0,1,2.6-.59,2.92,2.92,0,0,1,1.51.91,7.39,7.39,0,0,1,1,1.37,2.79,2.79,0,0,1,.3,1.27c0,.7,0,1.41,0,2.11a31.56,31.56,0,0,0,.29,3.76c.08.37.17.75.26,1.12,0,.1,0,.21.07.31.19.83-.15,1.26-1.08,1.35a4.92,4.92,0,0,1-1.27-.1h-.46a.18.18,0,0,0-.2.16v0a2.14,2.14,0,0,0,.13.87.71.71,0,0,0,.35.39,7.29,7.29,0,0,0,1.71.56,21.06,21.06,0,0,1,3.65,1.11,4.6,4.6,0,0,1,1,.48,2.91,2.91,0,0,1,1,1.63,35.37,35.37,0,0,1,.66,4.08v.1Z"/></g><path class="cls-5" d="M28.59,16.17A12.42,12.42,0,1,1,16.18,28.6v0A12.43,12.43,0,0,1,28.59,16.17m0-1A13.42,13.42,0,1,0,42,28.59h0A13.42,13.42,0,0,0,28.59,15.17Z"/></g></g></g></g></svg>