<?xml version="1.0" standalone="no"?>
<!DOCTYPE svg PUBLIC "-//W3C//DTD SVG 20010904//EN"
 "http://www.w3.org/TR/2001/REC-SVG-20010904/DTD/svg10.dtd">
<svg version="1.0" xmlns="http://www.w3.org/2000/svg"
 width="700.000000pt" height="700.000000pt" viewBox="0 0 700.000000 700.000000"
 preserveAspectRatio="xMidYMid meet">
<metadata>
Created by potrace 1.14, written by Peter Selinger 2001-2017
</metadata>
<g transform="translate(0.000000,700.000000) scale(0.100000,-0.100000)"
fill="#000000" stroke="none">
<path d="M2222 6205 c-57 -16 -97 -35 -154 -72 -34 -23 -41 -24 -89 -14 -86
19 -129 5 -259 -82 -131 -87 -153 -116 -190 -248 -41 -150 -35 -311 17 -449
39 -104 39 -98 -1 -115 -20 -9 -42 -28 -51 -45 -32 -62 -10 -203 56 -350 31
-69 32 -70 69 -70 l38 0 22 -72 c12 -40 44 -121 71 -179 46 -99 49 -111 49
-186 0 -179 -54 -253 -262 -357 -73 -36 -191 -84 -263 -107 -150 -48 -390
-141 -520 -203 -66 -31 -101 -55 -128 -86 -20 -24 -37 -47 -37 -51 0 -13 143
-180 206 -240 321 -307 724 -502 1164 -564 126 -18 395 -19 524 -4 l94 12 25
97 c91 345 286 691 539 956 l69 71 -63 23 c-79 28 -266 121 -322 160 -59 40
-103 92 -116 137 -6 21 -13 82 -17 136 l-6 97 31 44 c41 57 97 174 113 236 11
44 16 49 43 52 27 3 35 11 58 58 37 77 59 170 65 276 l6 91 -33 11 c-30 11
-32 14 -27 49 2 21 17 83 31 138 25 91 27 112 23 235 -8 271 -75 370 -347 518
-181 99 -315 129 -428 97z"/>
<path d="M4884 3640 c-84 -12 -152 -40 -223 -89 l-66 -46 -145 0 c-139 0 -147
-1 -202 -28 -107 -53 -214 -184 -249 -307 -9 -33 -13 -151 -14 -435 -1 -422
-8 -499 -62 -710 -39 -153 -57 -265 -49 -308 9 -48 57 -102 103 -118 24 -8 67
-9 127 -5 259 19 286 19 286 5 0 -8 -5 -47 -10 -86 -10 -77 -27 -112 -65 -137
-39 -25 -244 -83 -428 -121 -94 -20 -194 -43 -222 -52 -71 -23 -306 -118 -368
-149 -53 -26 -137 -99 -137 -119 0 -5 40 -53 89 -106 516 -553 1291 -782 2022
-598 404 102 779 331 1050 640 l49 56 -39 45 c-48 55 -122 95 -293 159 -156
59 -313 106 -515 153 -161 37 -295 85 -331 119 -28 26 -54 113 -50 164 l3 38
190 0 c170 0 194 2 229 20 72 37 101 109 78 197 -70 267 -92 477 -101 943 -8
426 -8 423 -106 570 -107 161 -228 262 -350 293 -61 16 -145 21 -201 12z"/>
</g>
</svg>
