<svg xmlns="http://www.w3.org/2000/svg" viewBox="0 0 104.61 23.58">
<defs>
<style>.cls-1{fill:#fe7524;}</style>
</defs>
    <g id="Layer_2" data-name="Layer 2">
        <g id="Layer_1-2" data-name="Layer 1">
            <path class="cls-1" d="M20.45,17.61a2.47,2.47,0,0,1,.49,1.62,2.82,2.82,0,0,1-1.71,2.41,16,16,0,0,1-3.57,1.41,15,15,0,0,1-3.8.53A11.8,11.8,0,0,1,3.2,20.43Q0,17.28,0,11.81A13.19,13.19,0,0,1,1.39,5.65,10.16,10.16,0,0,1,5.3,1.48,11.12,11.12,0,0,1,11,0a10.3,10.3,0,0,1,5.32,1.34,9.2,9.2,0,0,1,3.53,3.8,12.67,12.67,0,0,1,1.25,5.79c0,1.33-.59,2-1.76,2H5.7a7.24,7.24,0,0,0,1.81,4.7A6.07,6.07,0,0,0,12,19.13a8.37,8.37,0,0,0,2.62-.37,22.64,22.64,0,0,0,2.57-1,5.21,5.21,0,0,1,2-.74A1.52,1.52,0,0,1,20.45,17.61ZM7.39,5.56A7,7,0,0,0,5.7,9.82H16.17a6.61,6.61,0,0,0-1.39-4.28,4.57,4.57,0,0,0-3.61-1.46A5,5,0,0,0,7.39,5.56Z"/>
            <path class="cls-1" d="M57.05.56A2.43,2.43,0,0,1,58.42.14a2.9,2.9,0,0,1,1.92.72,2.21,2.21,0,0,1,.86,1.78A2.44,2.44,0,0,1,61,3.71L53.33,21.64A2.84,2.84,0,0,1,52.19,23a3.18,3.18,0,0,1-1.69.46A3.12,3.12,0,0,1,48.85,23a2.82,2.82,0,0,1-1.13-1.34L42.21,8.39,36.88,21.64A2.84,2.84,0,0,1,35.74,23a3.18,3.18,0,0,1-1.69.46A3.26,3.26,0,0,1,32.38,23a2.75,2.75,0,0,1-1.15-1.34L23.63,3.71a2.8,2.8,0,0,1-.23-1A2.29,2.29,0,0,1,24.32.86a3.15,3.15,0,0,1,2-.77A2.61,2.61,0,0,1,27.8.51a2.53,2.53,0,0,1,1,1.25l5.47,14.13,5.6-14A2.79,2.79,0,0,1,40.91.58,2.82,2.82,0,0,1,42.44.14,2.86,2.86,0,0,1,44,.58,2.78,2.78,0,0,1,45,1.9l5.65,14L56.11,1.81A2.5,2.5,0,0,1,57.05.56Z"/>
            <path class="cls-1" d="M84,17.61a2.47,2.47,0,0,1,.49,1.62,2.81,2.81,0,0,1-1.72,2.41,15.92,15.92,0,0,1-3.56,1.41,15,15,0,0,1-3.8.53,11.83,11.83,0,0,1-8.67-3.15q-3.19-3.15-3.19-8.62a13.19,13.19,0,0,1,1.39-6.16,10.09,10.09,0,0,1,3.91-4.17A11.08,11.08,0,0,1,74.54,0a10.32,10.32,0,0,1,5.33,1.34,9.11,9.11,0,0,1,3.52,3.8,12.54,12.54,0,0,1,1.25,5.79c0,1.33-.58,2-1.76,2H69.22a7.24,7.24,0,0,0,1.8,4.7,6.11,6.11,0,0,0,4.45,1.5,8.37,8.37,0,0,0,2.62-.37,23.4,23.4,0,0,0,2.57-1,5.21,5.21,0,0,1,2-.74A1.54,1.54,0,0,1,84,17.61Zm-13.06-12a6.93,6.93,0,0,0-1.69,4.26H79.69A6.67,6.67,0,0,0,78.3,5.54a4.57,4.57,0,0,0-3.62-1.46A5,5,0,0,0,70.91,5.56Z"/>
            <path class="cls-1" d="M103.92.6a2.28,2.28,0,0,1,.69,1.81,2.53,2.53,0,0,1-.6,1.85,3.69,3.69,0,0,1-2.18.79l-1.39.14a5.62,5.62,0,0,0-4,1.85A6.13,6.13,0,0,0,95.16,11v9.73a2.58,2.58,0,0,1-.83,2.06,3.09,3.09,0,0,1-2.09.72,3,3,0,0,1-2.06-.72,2.6,2.6,0,0,1-.81-2.06V2.78a2.48,2.48,0,0,1,.81-2,3,3,0,0,1,2-.7,2.8,2.8,0,0,1,1.94.67,2.45,2.45,0,0,1,.74,1.93V4.54A6.86,6.86,0,0,1,97.5,1.39,8,8,0,0,1,101.37.14L102,.09A2.52,2.52,0,0,1,103.92.6Z"/>
        </g>
    </g>
</svg>