<svg xmlns="http://www.w3.org/2000/svg" viewBox="0 0 137.81 106.87"><defs><style>.cls-1{fill:#fe7524;}.cls-2{fill:#fff;}</style></defs><g id="Layer_2" data-name="Layer 2"><g id="Layer_1-2" data-name="Layer 1"><path class="cls-1" d="M132.18,47.15,78.58,3.43a15.37,15.37,0,0,0-19.35,0L5.63,47.15A15.25,15.25,0,0,0,0,59V95.32a11.57,11.57,0,0,0,11.55,11.55H126.26a11.57,11.57,0,0,0,11.55-11.55V59A15.24,15.24,0,0,0,132.18,47.15Z"/><path class="cls-2" d="M37.05,81.73a2.47,2.47,0,0,1,.49,1.62,2.8,2.8,0,0,1-1.72,2.41,15,15,0,0,1-3.56,1.41,14.57,14.57,0,0,1-3.8.54,11.83,11.83,0,0,1-8.67-3.15c-2.13-2.1-3.19-5-3.19-8.62A13.16,13.16,0,0,1,18,69.78a10.09,10.09,0,0,1,3.91-4.17,11.09,11.09,0,0,1,5.72-1.49A10.22,10.22,0,0,1,33,65.47a9,9,0,0,1,3.52,3.8,12.49,12.49,0,0,1,1.25,5.79c0,1.33-.58,2-1.76,2H22.3a7.24,7.24,0,0,0,1.8,4.7,6.07,6.07,0,0,0,4.45,1.51,8.37,8.37,0,0,0,2.62-.37,27.14,27.14,0,0,0,2.57-1,5.21,5.21,0,0,1,2-.74A1.55,1.55,0,0,1,37.05,81.73ZM24,69.68A7,7,0,0,0,22.3,74H32.77a6.62,6.62,0,0,0-1.39-4.29,4.61,4.61,0,0,0-3.62-1.46A5,5,0,0,0,24,69.68Z"/><path class="cls-2" d="M73.65,64.68A2.43,2.43,0,0,1,75,64.26a2.9,2.9,0,0,1,1.92.72,2.26,2.26,0,0,1,.86,1.79,2.39,2.39,0,0,1-.23,1.06L69.92,85.76a2.68,2.68,0,0,1-1.13,1.34,3.19,3.19,0,0,1-1.69.47,3.13,3.13,0,0,1-1.65-.47,2.68,2.68,0,0,1-1.13-1.34L58.8,72.51,53.48,85.76a2.74,2.74,0,0,1-1.14,1.34,3.19,3.19,0,0,1-1.69.47A3.25,3.25,0,0,1,49,87.1a2.73,2.73,0,0,1-1.16-1.34L40.23,67.83a2.84,2.84,0,0,1-.24-1A2.3,2.3,0,0,1,40.92,65a3.14,3.14,0,0,1,2-.76,2.71,2.71,0,0,1,1.44.41,2.56,2.56,0,0,1,1,1.26L50.84,80l5.6-14A2.74,2.74,0,0,1,59,64.26,2.72,2.72,0,0,1,61.63,66l5.65,14L72.7,65.93A2.66,2.66,0,0,1,73.65,64.68Z"/><path class="cls-2" d="M100.57,81.73a2.47,2.47,0,0,1,.49,1.62,2.8,2.8,0,0,1-1.72,2.41,15.2,15.2,0,0,1-3.56,1.41,14.57,14.57,0,0,1-3.8.54,11.81,11.81,0,0,1-8.67-3.15c-2.13-2.1-3.19-5-3.19-8.62a13.16,13.16,0,0,1,1.39-6.16,10.09,10.09,0,0,1,3.91-4.17,11.06,11.06,0,0,1,5.72-1.49,10.22,10.22,0,0,1,5.33,1.35,9.06,9.06,0,0,1,3.52,3.8,12.49,12.49,0,0,1,1.25,5.79c0,1.33-.58,2-1.76,2H85.81a7.3,7.3,0,0,0,1.81,4.7,6.06,6.06,0,0,0,4.45,1.51,8.37,8.37,0,0,0,2.62-.37c.75-.25,1.61-.59,2.57-1a5.11,5.11,0,0,1,2-.74A1.55,1.55,0,0,1,100.57,81.73Zm-13.06-12A7,7,0,0,0,85.81,74H96.29a6.67,6.67,0,0,0-1.39-4.29,4.61,4.61,0,0,0-3.62-1.46A5,5,0,0,0,87.51,69.68Z"/><path class="cls-2" d="M120.52,64.73a2.26,2.26,0,0,1,.69,1.8,2.54,2.54,0,0,1-.6,1.86,3.69,3.69,0,0,1-2.18.78l-1.39.14a5.66,5.66,0,0,0-4,1.86,6,6,0,0,0-1.27,3.93v9.73a2.6,2.6,0,0,1-.83,2.07,3.15,3.15,0,0,1-2.09.71,3,3,0,0,1-2.06-.71,2.62,2.62,0,0,1-.81-2.07V66.9a2.49,2.49,0,0,1,.81-2,3,3,0,0,1,2-.69,2.77,2.77,0,0,1,1.95.67,2.48,2.48,0,0,1,.74,1.92v1.86a6.94,6.94,0,0,1,2.62-3.16A8.13,8.13,0,0,1,118,64.26l.65,0A2.52,2.52,0,0,1,120.52,64.73Z"/></g></g></svg>